<svg width="28" height="28" viewBox="0 0 28 28" fill="none" xmlns="http://www.w3.org/2000/svg">
<path d="M19.4834 17.85L15.6334 14L19.4834 10.15C19.9501 9.68332 19.9501 8.98332 19.4834 8.51666C19.0167 8.04999 18.3167 8.04999 17.8501 8.51666L13.1834 13.1833C12.7167 13.65 12.7167 14.35 13.1834 14.8167L17.8501 19.4833C18.0834 19.7167 18.3167 19.8333 18.6667 19.8333C19.0167 19.8333 19.2501 19.7167 19.4834 19.4833C19.9501 19.0167 19.9501 18.3167 19.4834 17.85ZM9.33341 8.16666C8.63341 8.16666 8.16675 8.63332 8.16675 9.33332V18.6667C8.16675 19.3667 8.63341 19.8333 9.33341 19.8333C10.0334 19.8333 10.5001 19.3667 10.5001 18.6667V9.33332C10.5001 8.63332 10.0334 8.16666 9.33341 8.16666Z" fill="#131313"/>
</svg>
